<?xml version="1.0" standalone="no"?>
<!DOCTYPE svg PUBLIC "-//W3C//DTD SVG 20010904//EN"
 "http://www.w3.org/TR/2001/REC-SVG-20010904/DTD/svg10.dtd">
<svg version="1.0" xmlns="http://www.w3.org/2000/svg"
 width="288.000000pt" height="288.000000pt" viewBox="0 0 288.000000 288.000000"
 preserveAspectRatio="xMidYMid meet">
<metadata>
Created by potrace 1.14, written by Peter Selinger 2001-2017
</metadata>
<g transform="translate(0.000000,288.000000) scale(0.100000,-0.100000)"
fill="#000000" stroke="none">
<path d="M1265 2870 c-92 -14 -120 -19 -198 -40 -401 -106 -753 -401 -931
-781 -96 -206 -135 -395 -131 -634 4 -237 47 -417 146 -614 51 -102 63 -121
141 -228 223 -301 582 -510 968 -562 69 -10 344 -7 395 3 356 73 575 185 801
411 206 205 331 436 396 730 32 146 32 414 -1 570 -58 283 -189 525 -395 730
-232 232 -517 373 -835 414 -79 10 -289 11 -356 1z m371 -113 c12 -3 39 -8 60
-11 41 -7 246 -67 242 -72 -2 -1 -23 -5 -48 -8 -109 -13 -237 -75 -314 -152
-115 -115 -190 -328 -269 -764 -3 -14 -19 -104 -36 -200 -18 -96 -41 -220 -53
-275 -11 -55 -22 -111 -25 -125 -38 -218 -125 -430 -210 -516 -61 -61 -97 -77
-172 -80 -52 -2 -74 2 -115 23 -44 22 -116 73 -152 108 -48 47 -116 147 -155
230 -83 174 -107 337 -62 435 21 48 118 149 218 225 33 26 61 50 63 55 8 21
-91 201 -133 243 -85 86 -190 97 -267 29 -24 -20 -23 -16 12 66 117 275 327
500 610 654 101 55 302 120 416 133 27 4 50 8 52 10 6 6 313 -2 338 -8z m589
-541 c111 -54 233 -205 298 -366 40 -101 56 -186 53 -280 -2 -71 -7 -96 -33
-150 -29 -62 -91 -140 -111 -140 -20 0 -131 92 -247 204 -66 64 -124 116 -130
116 -5 0 -24 -12 -41 -28 -18 -15 -55 -47 -83 -71 -28 -25 -51 -50 -51 -56 0
-11 102 -116 160 -165 14 -12 36 -31 50 -44 144 -127 385 -313 448 -345 51
-26 63 -26 95 -1 l26 21 -14 -34 c-45 -108 -163 -275 -270 -381 -194 -192
-436 -317 -710 -366 -98 -18 -362 -22 -425 -6 -13 3 -42 8 -64 12 -61 9 -62
14 -7 39 68 32 148 92 205 156 162 180 245 407 311 849 9 58 17 116 20 130 2
14 6 48 10 75 10 79 13 107 20 160 4 28 9 63 11 78 44 348 133 552 267 613 50
22 142 14 212 -20z"/>
</g>
</svg>
